<svg id="Ñëîé_2" data-name="Ñëîé 2" xmlns="http://www.w3.org/2000/svg" viewBox="0 0 849.74 260.04"><defs><style>.cls-1{font-size:115.34px;letter-spacing:0.19em;}.cls-1,.cls-2,.cls-3{fill:#fff;}.cls-1,.cls-2{font-family:RussoOne-Regular, Russo One;}.cls-2{font-size:143.85px;stroke:#fff;stroke-miterlimit:10;stroke-width:3px;}</style></defs><text class="cls-1" transform="translate(51.12 260.04)">SNIPPETS</text><text class="cls-2" transform="translate(154.51 117.51)">CODEROG</text><path class="cls-3" d="M67.12,2.43c35.67-.18,65.18,27.6,64.81,64.21-.38,37.23-28.8,65.16-65.29,64.91-36.14-.24-64.1-28.05-64.41-65S31.63,2.19,67.12,2.43ZM77,44.37c.66-4.19.13-6.06-3.25-6.4-4.22-.43-5.7,1.83-6.46,5.41-3.3,15.47-6.71,30.93-10,46.41-.54,2.58-1.36,5.57,2.86,6.07,3.32.4,5.73-.35,6.54-4.14C70.2,75.46,73.78,59.22,77,44.37ZM49.79,80c-1.16-1.53-2-2.82-3-4-8.13-9.33-8.14-9.32-.24-18a7.53,7.53,0,0,1,.57-.56c2-1.8,3.16-3.57.7-6s-4.48-2.41-6.85,0c-4.14,4.2-8.36,8.32-12.58,12.43-2.16,2.1-2.21,4,0,6.14,4.45,4.26,8.78,8.65,13.16,13,1.46,1.44,3.1,2.33,4.93.75A38.89,38.89,0,0,0,49.79,80ZM97.71,65.31c-4.27,4.47-6.85,7.11-9.34,9.82-2.07,2.23-5.6,4.13-1.67,7.79,3.75,3.5,5.81.29,7.92-1.94,17.08-18.08,17.5-9.8-.55-28.8C91.91,49.89,89.75,48,86.61,51c-3.42,3.2-1,5.29,1.33,7.17C90.84,60.52,94,62.61,97.71,65.31Z"/></svg>